<?xml version="1.0" encoding="utf-8"?>
<!-- Generator: Adobe Illustrator 14.0.0, SVG Export Plug-In . SVG Version: 6.00 Build 43363)  -->
<!DOCTYPE svg PUBLIC "-//W3C//DTD SVG 1.1//EN" "http://www.w3.org/Graphics/SVG/1.1/DTD/svg11.dtd">
<svg version="1.1" id="Layer_1" xmlns="http://www.w3.org/2000/svg" xmlns:xlink="http://www.w3.org/1999/xlink" x="0px" y="0px"
	 width="216px" height="216px" viewBox="0 0 216 216" enable-background="new 0 0 216 216" xml:space="preserve">
<g>
	<g>
		<path fill-rule="evenodd" clip-rule="evenodd" d="M108,0C48.351,0,0,48.357,0,108s48.351,108,108,108c59.643,0,108-48.357,108-108
			S167.643,0,108,0z M108,189c-44.732,0-81-36.268-81-81s36.268-81,81-81c44.732,0,81,36.268,81,81S152.732,189,108,189z
			 M127.842,80.703L108,40.514L88.165,80.703L43.809,87.15l32.095,31.277l-7.574,44.179L108,141.75l39.67,20.856l-7.568-44.179
			l32.09-31.277L127.842,80.703z"/>
	</g>
</g>
</svg>
