<?xml version="1.0" encoding="utf-8"?>
<!-- Generator: Adobe Illustrator 14.0.0, SVG Export Plug-In . SVG Version: 6.00 Build 43363)  -->
<!DOCTYPE svg PUBLIC "-//W3C//DTD SVG 1.1//EN" "http://www.w3.org/Graphics/SVG/1.1/DTD/svg11.dtd">
<svg version="1.1" id="Layer_1" xmlns="http://www.w3.org/2000/svg" xmlns:xlink="http://www.w3.org/1999/xlink" x="0px" y="0px"
	 width="216px" height="216px" viewBox="0 0 216 216" enable-background="new 0 0 216 216" xml:space="preserve">
<g>
	<g>
		<path fill-rule="evenodd" clip-rule="evenodd" d="M67.5,0h-27v27h27V0z M121.5,94.5h-27v27h27V94.5z M162,94.5h-27v27h27V94.5z
			 M175.5,0h-27v27h27V0z M202.5,0H189v40.5h-54V0H81v40.5H27V0H13.5C6.045,0,0,6.038,0,13.5v189c0,7.462,6.045,13.5,13.5,13.5h189
			c7.449,0,13.5-6.038,13.5-13.5v-189C216,6.038,209.949,0,202.5,0z M189,189H27V67.5h162V189z M81,94.5H53.993v27H81V94.5z M81,135
			H53.993v27H81V135z M121.5,135h-27v27h27V135z M162,135h-27v27h27V135z"/>
	</g>
</g>
</svg>
