<?xml version="1.0" encoding="utf-8"?>
<!-- Generator: Adobe Illustrator 14.0.0, SVG Export Plug-In . SVG Version: 6.00 Build 43363)  -->
<!DOCTYPE svg PUBLIC "-//W3C//DTD SVG 1.1//EN" "http://www.w3.org/Graphics/SVG/1.1/DTD/svg11.dtd">
<svg version="1.1" id="Layer_1" xmlns="http://www.w3.org/2000/svg" xmlns:xlink="http://www.w3.org/1999/xlink" x="0px" y="0px"
	 width="216px" height="216px" viewBox="0 0 216 216" enable-background="new 0 0 216 216" xml:space="preserve">
<path d="M45.784,163.72c0,0,5.088,22.316,41.816,25.283v27h27.001v-27c41.791-1.557,58.613-21.331,58.613-47.527
	c0-26.195-18.088-40.241-57.783-50.775C90.04,83.679,81.667,79.362,81.667,69.639c0-9.993,8.643-16.201,26.466-16.201
	c26.468,0,34.75,13.5,34.75,13.5l15.562-23.736c0,0-4.096-17.562-43.844-16.197V0.003h-27v27
	C60.626,27.444,44.946,49.125,44.946,71.53c0,25.919,19.169,38.885,55.898,49.143c28.087,7.83,35.101,13.236,35.101,23.77
	c0,10.258-7.83,18.088-27.541,18.088c-26.466,0-44.796-23.661-44.796-23.661L45.784,163.72z"/>
</svg>
