<?xml version="1.0" encoding="utf-8"?>
<!-- Generator: Adobe Illustrator 14.0.0, SVG Export Plug-In . SVG Version: 6.00 Build 43363)  -->
<!DOCTYPE svg PUBLIC "-//W3C//DTD SVG 1.1//EN" "http://www.w3.org/Graphics/SVG/1.1/DTD/svg11.dtd">
<svg version="1.1" id="Layer_1" xmlns="http://www.w3.org/2000/svg" xmlns:xlink="http://www.w3.org/1999/xlink" x="0px" y="0px"
	 width="216px" height="216px" viewBox="0 0 216 216" enable-background="new 0 0 216 216" xml:space="preserve">
<g>
	<g>
		<path fill-rule="evenodd" clip-rule="evenodd" d="M0,94.5c0,29.821,18.134,54,40.5,54S81,124.321,81,94.5
			C81,73.96,49.366,27,40.5,27C32.478,27,0,71.007,0,94.5z M40.5,54C43.453,54,54,74.869,54,83.999C54,114.553,47.955,108,40.5,108
			S27,115.818,27,83.999C27,73.558,37.824,54,40.5,54z M175.5,27c-8.029,0-40.5,44.007-40.5,67.5c0,29.821,18.127,54,40.5,54
			s40.5-24.179,40.5-54C216,73.96,184.373,27,175.5,27z M175.5,108c-7.462,0-13.5,7.818-13.5-24.001C162,73.558,172.824,54,175.5,54
			c2.953,0,13.5,20.869,13.5,29.999C189,114.553,182.962,108,175.5,108z M189,13.5C189,6.045,182.962,0,175.5,0h-135
			C33.045,0,27,6.045,27,13.5S33.045,27,40.5,27h54v162h-27c-7.455,0-13.5,6.038-13.5,13.5S60.045,216,67.5,216h81
			c7.462,0,13.5-6.038,13.5-13.5s-6.038-13.5-13.5-13.5h-27V27h54C182.962,27,189,20.955,189,13.5z"/>
	</g>
</g>
</svg>
