<?xml version="1.0" encoding="utf-8"?>
<!-- Generator: Adobe Illustrator 14.0.0, SVG Export Plug-In . SVG Version: 6.00 Build 43363)  -->
<!DOCTYPE svg PUBLIC "-//W3C//DTD SVG 1.1//EN" "http://www.w3.org/Graphics/SVG/1.1/DTD/svg11.dtd">
<svg version="1.1" id="Layer_1" xmlns="http://www.w3.org/2000/svg" xmlns:xlink="http://www.w3.org/1999/xlink" x="0px" y="0px"
	 width="216px" height="216px" viewBox="0 0 216 216" enable-background="new 0 0 216 216" xml:space="preserve">
<path d="M216,189v13.5c0,7.462-6.051,13.5-13.5,13.5H189l0,0H54H27l0,0H13.5C6.045,216,0,209.962,0,202.5V189l0,0v-54V40.5
	C0,33.045,6.045,27,13.5,27H27l0,0V13.5C27,6.038,33.045,0,40.5,0h135h27c7.449,0,13.5,6.038,13.5,13.5V27l0,0V189L216,189z
	 M54,67.5L54,67.5V54H27v135h27v-13.5l0,0V67.5z M189,175.5V27h-13.5H162H81v27l0,0v121.5l0,0V189h54l0,0h27l0,0h27V175.5z
	 M148.5,54H162v27h-13.5h-27H108V54h13.5H148.5z M148.5,94.5H162v27h-13.5h-27H108v-27h13.5H148.5z M148.5,135H162v27h-13.5h-27H108
	v-27h13.5H148.5z"/>
</svg>
