<?xml version="1.0" encoding="utf-8"?>
<!-- Generator: Adobe Illustrator 14.0.0, SVG Export Plug-In . SVG Version: 6.00 Build 43363)  -->
<!DOCTYPE svg PUBLIC "-//W3C//DTD SVG 1.1//EN" "http://www.w3.org/Graphics/SVG/1.1/DTD/svg11.dtd">
<svg version="1.1" id="Layer_1" xmlns="http://www.w3.org/2000/svg" xmlns:xlink="http://www.w3.org/1999/xlink" x="0px" y="0px"
	 width="216px" height="216px" viewBox="0 0 216 216" enable-background="new 0 0 216 216" xml:space="preserve">
<path d="M94.507,13.641c0,7.443-6.04,13.477-13.496,13.477H40.515c-7.456,0-13.496,6.166-13.496,13.608v40.43
	c0,7.443-6.04,13.483-13.497,13.483c-7.456,0-13.496-6.04-13.496-13.483V27.249c0-14.886,12.087-27.084,26.993-27.084h53.992
	C88.467,0.165,94.507,6.198,94.507,13.641z M216,27.157v40.416c0,14.893-12.094,26.96-27.006,26.96h-40.495
	c-14.913,0-26.993-12.067-26.993-26.96V27.157c0-14.893,12.08-26.96,26.993-26.96h40.495C203.906,0.197,216,12.265,216,27.157z
	 M188.994,40.634c0-7.443-6.033-13.477-13.49-13.477h-13.502c-7.457,0-13.503,6.033-13.503,13.477v13.463
	c0,7.443,6.046,13.477,13.503,13.477h13.502c7.457,0,13.49-6.033,13.49-13.477V40.634z M202.471,121.618
	c-7.456,0-13.49,6.033-13.49,13.477v40.43c0,7.442-6.046,13.357-13.502,13.357h-40.496c-7.456,0-13.489,6.033-13.489,13.477
	s6.033,13.477,13.489,13.477h53.998c14.9,0,26.993-11.948,26.993-26.834v-53.906C215.974,127.651,209.927,121.618,202.471,121.618z
	 M94.494,148.413v40.43c0,14.886-12.086,26.953-26.999,26.953H26.999C12.087,215.796,0,203.729,0,188.843v-40.43
	c0-14.887,12.087-26.953,26.999-26.953h40.496C82.407,121.46,94.494,133.526,94.494,148.413z M67.495,161.89
	c0-7.443-6.04-13.477-13.496-13.477H40.496c-7.457,0-13.497,6.033-13.497,13.477v13.477c0,7.443,6.04,13.477,13.497,13.477h13.503
	c7.456,0,13.496-6.033,13.496-13.477V161.89z"/>
</svg>
