<?xml version="1.0" encoding="utf-8"?>
<!-- Generator: Adobe Illustrator 14.0.0, SVG Export Plug-In . SVG Version: 6.00 Build 43363)  -->
<!DOCTYPE svg PUBLIC "-//W3C//DTD SVG 1.1//EN" "http://www.w3.org/Graphics/SVG/1.1/DTD/svg11.dtd">
<svg version="1.1" id="Layer_1" xmlns="http://www.w3.org/2000/svg" xmlns:xlink="http://www.w3.org/1999/xlink" x="0px" y="0px"
	 width="216px" height="216px" viewBox="0 0 216 216" enable-background="new 0 0 216 216" xml:space="preserve">
<path fill-rule="evenodd" clip-rule="evenodd" d="M202.5,216h-189C6.045,216,0,209.962,0,202.5V189h1.358
	c5.445-32.247,29.874-57.85,61.396-65.18C57.256,115.369,54,105.33,54,94.5V54c0-29.821,24.179-54,54-54s54,24.179,54,54v40.5
	c0,10.83-3.256,20.869-8.754,29.32c31.521,7.33,55.951,32.933,61.396,65.18H216v13.5C216,209.962,209.949,216,202.5,216z M135,54
	c0-14.91-12.09-27-27-27c-14.917,0-27,12.09-27,27v40.5c0,14.91,12.083,27,27,27c14.91,0,27-12.09,27-27V54z M135,148.5H81
	c-25.135,0-46.07,17.258-52.088,40.5h158.176C181.063,165.758,160.128,148.5,135,148.5z"/>
</svg>
