<?xml version="1.0" encoding="utf-8"?>
<!-- Generator: Adobe Illustrator 14.0.0, SVG Export Plug-In . SVG Version: 6.00 Build 43363)  -->
<!DOCTYPE svg PUBLIC "-//W3C//DTD SVG 1.1//EN" "http://www.w3.org/Graphics/SVG/1.1/DTD/svg11.dtd">
<svg version="1.1" id="Layer_1" xmlns="http://www.w3.org/2000/svg" xmlns:xlink="http://www.w3.org/1999/xlink" x="0px" y="0px"
	 width="216px" height="216px" viewBox="0 0 216 216" enable-background="new 0 0 216 216" xml:space="preserve">
<g>
	<g>
		<path d="M108,162h67.5v-27.001H108V162z M175.5,94.5H108v27h67.5V94.5z M202.5,40.5h-54v27h40.501v121.501H27V67.5h40.5v-27h-54
			C6.045,40.5,0,46.544,0,54v148.5c0,7.462,6.045,13.5,13.5,13.5h189c7.462,0,13.5-6.038,13.5-13.5V54
			C216,46.544,209.962,40.5,202.5,40.5z M40.5,162h54V94.5h-54V162z M121.5,13.5h-27L81,67.5h53.999L121.5,13.5z"/>
	</g>
</g>
</svg>
