<?xml version="1.0" encoding="utf-8"?>
<!-- Generator: Adobe Illustrator 14.0.0, SVG Export Plug-In . SVG Version: 6.00 Build 43363)  -->
<!DOCTYPE svg PUBLIC "-//W3C//DTD SVG 1.1//EN" "http://www.w3.org/Graphics/SVG/1.1/DTD/svg11.dtd">
<svg version="1.1" id="Layer_1" xmlns="http://www.w3.org/2000/svg" xmlns:xlink="http://www.w3.org/1999/xlink" x="0px" y="0px"
	 width="216px" height="216px" viewBox="0 0 216 216" enable-background="new 0 0 216 216" xml:space="preserve">
<path fill-rule="evenodd" clip-rule="evenodd" d="M171.028,106.376c-0.9,2.861-2.433,5.829-5.429,8.824
	C151.2,129.6,151.2,144,151.2,144v14.4c0,7.959-6.455,14.399-14.4,14.399H79.2c-7.953,0-14.4-6.44-14.4-14.399V144
	c0-10.463-7.559-20.841-11.714-25.791c-0.12-0.141-0.239-0.295-0.358-0.436c-1.385-1.631-2.328-2.573-2.328-2.573v-0.514
	C41.442,102.762,36,88.08,36,72c0-39.762,32.238-72,72-72c39.769,0,72,32.238,72,72C180,84.516,176.682,96.174,171.028,106.376z
	 M108,28.8c-23.857,0-43.2,19.343-43.2,43.2c0,18.78,12.059,34.607,28.8,40.557V129.6c0,7.96,6.448,14.4,14.4,14.4
	c7.945,0,14.4-6.44,14.4-14.4v-17.043c16.734-5.949,28.8-21.776,28.8-40.557C151.2,48.143,131.864,28.8,108,28.8z M86.4,187.2h43.2
	c3.98,0,7.2,3.22,7.2,7.2c0,3.979-0.97,21.6,0,21.6H79.2c0.52,0,0-17.62,0-21.6C79.2,190.42,82.42,187.2,86.4,187.2z"/>
</svg>
