<?xml version="1.0" encoding="utf-8"?>
<!-- Generator: Adobe Illustrator 14.0.0, SVG Export Plug-In . SVG Version: 6.00 Build 43363)  -->
<!DOCTYPE svg PUBLIC "-//W3C//DTD SVG 1.1//EN" "http://www.w3.org/Graphics/SVG/1.1/DTD/svg11.dtd">
<svg version="1.1" id="Layer_1" xmlns="http://www.w3.org/2000/svg" xmlns:xlink="http://www.w3.org/1999/xlink" x="0px" y="0px"
	 width="216px" height="216px" viewBox="0 0 216 216" enable-background="new 0 0 216 216" xml:space="preserve">
<g>
	<g>
		<path d="M215.2,66.437L189.158,7.818c-0.462-1.873-1.385-3.547-2.743-4.872c-3.178-3.119-7.12-2.881-9.006-2.769
			c-0.316,0.02-0.646,0.046-1.002,0.046H39.595c-0.349,0-0.686-0.026-1.002-0.046c-1.899-0.119-5.828-0.356-9.013,2.769
			c-1.338,1.312-2.261,2.973-2.723,4.826L0.829,65.25c-0.906,1.997-1.039,4.163-0.532,6.141c-0.185,0.731-0.292,1.494-0.292,2.285
			c0,12.163,5.743,22.949,14.551,29.601c-0.663,1.619-1.062,3.227-1.062,4.583v94.517c0,4.958,5.208,13.503,9.982,13.503h169.045
			c4.773,0,10.008-8.545,10.008-13.503v-94.517c0-1.36-0.402-2.971-1.07-4.594c8.799-6.653,14.533-17.435,14.533-29.59
			c0-0.597-0.059-1.179-0.165-1.743C216.167,70.14,215.995,68.224,215.2,66.437z M32.903,80.012l21.098-53.166h108.02l23.007,53.123
			c0.018,4.199,0.929,2.601-8.845,2.601c-7.847,0-21.529,0.857-26.799-3.955c0.069-0.792,0.117-1.591,0.117-2.407
			c0-4.964-2.974-21.645-15.342-21.645c-15.744,0-10.325,14.148-10.325,19.113c0,10.259-5.389,7.362-15.238,7.362
			c-9.87,0-14.206,0.358-14.206-9.895c0-4.964-2.183-18.269-14.129-18.269c-11.524,0-12.435,15.836-12.435,20.801
			c0,10.259-16.463,9.315-26.326,9.315c-3.787,0-6.797-0.803-9.079-2.363C32.628,80.446,32.798,80.245,32.903,80.012z
			 M121.514,188.876H94.509V161.87h27.005V188.876z M148.519,188.876v-40.508c0-7.438-6.355-13.503-13.503-13.503H81.006
			c-7.147,0-13.503,6.065-13.503,13.503v40.508H40.499v-79.005c11.652-1.539,25.595-7.775,34.757-16.56
			c7.904,9.586,20.938,15.67,33.23,15.67c12.31,0,25.52-5.09,33.526-13.968c0.566,0.34,1.145,0.68,1.746,1.019
			c10.757,6.068,19.544,12.436,31.766,13.899v78.944H148.519z"/>
	</g>
</g>
</svg>
