<?xml version="1.0" encoding="utf-8"?>
<!-- Generator: Adobe Illustrator 14.0.0, SVG Export Plug-In . SVG Version: 6.00 Build 43363)  -->
<!DOCTYPE svg PUBLIC "-//W3C//DTD SVG 1.1//EN" "http://www.w3.org/Graphics/SVG/1.1/DTD/svg11.dtd">
<svg version="1.1" id="Layer_1" xmlns="http://www.w3.org/2000/svg" xmlns:xlink="http://www.w3.org/1999/xlink" x="0px" y="0px"
	 width="216px" height="216px" viewBox="0 0 216 216" enable-background="new 0 0 216 216" xml:space="preserve">
<g>
	<g>
		<path fill-rule="evenodd" clip-rule="evenodd" d="M108,0C48.351,0,0,48.351,0,108c0,59.643,48.351,108,108,108
			c59.643,0,108-48.357,108-108C216,48.351,167.643,0,108,0z M154.514,135.424c4.75-8.04,7.486-17.41,7.486-27.424
			s-2.736-19.384-7.486-27.423l19.494-19.495C183.437,74.323,189,90.506,189,108c0,17.492-5.564,33.676-14.993,46.917
			L154.514,135.424z M81,108c0-14.91,12.089-27,27-27c14.91,0,27,12.09,27,27s-12.09,27-27,27C93.089,135,81,122.91,81,108z
			 M154.918,41.992l-19.494,19.495C127.384,56.736,118.014,54,108,54c-10.013,0-19.384,2.736-27.423,7.486L61.081,41.991
			C74.322,32.563,90.506,27,108,27C125.492,27,141.677,32.563,154.918,41.992z M41.991,61.081l19.496,19.495
			C56.736,88.616,54,97.986,54,108s2.736,19.385,7.487,27.424l-19.494,19.494C32.563,141.677,27,125.492,27,108
			C27,90.506,32.563,74.322,41.991,61.081z M61.082,174.008l19.495-19.494C88.616,159.264,97.987,162,108,162
			c10.014,0,19.384-2.736,27.424-7.486l19.493,19.493C141.676,183.436,125.492,189,108,189
			C90.506,189,74.323,183.436,61.082,174.008z"/>
	</g>
</g>
</svg>
