<?xml version="1.0" encoding="utf-8"?>
<!-- Generator: Adobe Illustrator 14.0.0, SVG Export Plug-In . SVG Version: 6.00 Build 43363)  -->
<!DOCTYPE svg PUBLIC "-//W3C//DTD SVG 1.1//EN" "http://www.w3.org/Graphics/SVG/1.1/DTD/svg11.dtd">
<svg version="1.1" id="Layer_1" xmlns="http://www.w3.org/2000/svg" xmlns:xlink="http://www.w3.org/1999/xlink" x="0px" y="0px"
	 width="216px" height="216px" viewBox="0 0 216 216" enable-background="new 0 0 216 216" xml:space="preserve">
<path d="M186.171,13.053v18.275L24.729,61.078C12.541,63.517,3.773,74.232,3.773,86.674v35.511c0,12.442,8.768,23.166,20.949,25.599
	l5.113,1.03v30.336c0,12.378,8.697,23.062,20.809,25.559l52.124,10.748c16.174,3.324,31.316-9.042,31.316-25.571V169.7l52.086,7.845
	v18.275c0,7.208,5.833,13.053,13.027,13.053l0,0c7.195,0,13.028-5.845,13.028-13.053V13.053C212.227,5.846,206.394,0,199.198,0l0,0
	C192.004,0,186.171,5.846,186.171,13.053z M108.028,174.412c0,8.278-5.081,10.022-13.168,8.354l-28.558-0.93
	c-6.056-1.249-10.405-6.597-10.405-12.786v-13.385l52.131,8.813V174.412z M186.171,147.363L40.31,120.733
	c-6.087-1.222-10.474-2.509-10.474-8.729V96.856c0-6.221,4.387-7.501,10.474-8.723l145.861-26.63V147.363z"/>
</svg>
