<?xml version="1.0" encoding="utf-8"?>
<!-- Generator: Adobe Illustrator 14.0.0, SVG Export Plug-In . SVG Version: 6.00 Build 43363)  -->
<!DOCTYPE svg PUBLIC "-//W3C//DTD SVG 1.1//EN" "http://www.w3.org/Graphics/SVG/1.1/DTD/svg11.dtd">
<svg version="1.1" id="Layer_1" xmlns="http://www.w3.org/2000/svg" xmlns:xlink="http://www.w3.org/1999/xlink" x="0px" y="0px"
	 width="216px" height="216px" viewBox="0 0 216 216" enable-background="new 0 0 216 216" xml:space="preserve">
<path fill-rule="evenodd" clip-rule="evenodd" d="M202.5,216h-189C6.045,216,0,209.962,0,202.5v-189C0,6.045,6.045,0,13.5,0h135
	l-27,27H27v162h162V94.5l27-27v135C216,209.962,209.949,216,202.5,216z M54,162v-40.5L175.5,0H189l27,27v13.5L94.5,162H54z
	 M114.75,114.75L189,40.5L175.5,27l-74.25,74.25L114.75,114.75z M81,121.5L67.5,135v13.5H81L94.5,135L81,121.5z"/>
</svg>
